<mxfile host="app.diagrams.net" modified="2022-03-17T08:04:06.479Z" agent="5.0 (Windows NT 10.0; Win64; x64) AppleWebKit/537.36 (KHTML, like Gecko) Chrome/99.0.4844.51 Safari/537.36" etag="nP5WFwRxPhpt11nAcGDo" version="17.1.3" type="github">
  <diagram id="C5RBs43oDa-KdzZeNtuy" name="Page-1">
    <mxGraphModel dx="1221" dy="1813" grid="1" gridSize="10" guides="1" tooltips="1" connect="1" arrows="1" fold="1" page="1" pageScale="1" pageWidth="827" pageHeight="1169" math="0" shadow="0">
      <root>
        <mxCell id="WIyWlLk6GJQsqaUBKTNV-0" />
        <mxCell id="WIyWlLk6GJQsqaUBKTNV-1" parent="WIyWlLk6GJQsqaUBKTNV-0" />
        <mxCell id="WIyWlLk6GJQsqaUBKTNV-2" value="" style="rounded=0;html=1;jettySize=auto;orthogonalLoop=1;fontSize=11;endArrow=block;endFill=0;endSize=8;strokeWidth=1;shadow=0;labelBackgroundColor=none;edgeStyle=orthogonalEdgeStyle;" parent="WIyWlLk6GJQsqaUBKTNV-1" source="WIyWlLk6GJQsqaUBKTNV-3" edge="1">
          <mxGeometry relative="1" as="geometry">
            <mxPoint x="180" y="-800" as="targetPoint" />
          </mxGeometry>
        </mxCell>
        <mxCell id="WIyWlLk6GJQsqaUBKTNV-3" value="删除商家订单" style="rounded=1;whiteSpace=wrap;html=1;fontSize=12;glass=0;strokeWidth=1;shadow=0;" parent="WIyWlLk6GJQsqaUBKTNV-1" vertex="1">
          <mxGeometry x="120" y="-880" width="120" height="40" as="geometry" />
        </mxCell>
        <mxCell id="WIyWlLk6GJQsqaUBKTNV-4" value="成功" style="rounded=0;html=1;jettySize=auto;orthogonalLoop=1;fontSize=11;endArrow=block;endFill=0;endSize=8;strokeWidth=1;shadow=0;labelBackgroundColor=none;edgeStyle=orthogonalEdgeStyle;exitX=0.5;exitY=1;exitDx=0;exitDy=0;" parent="WIyWlLk6GJQsqaUBKTNV-1" source="4a2UcWddZCdq6afZ1OfK-3" edge="1">
          <mxGeometry y="20" relative="1" as="geometry">
            <mxPoint as="offset" />
            <mxPoint x="180" y="-690" as="targetPoint" />
            <mxPoint x="180" y="-740" as="sourcePoint" />
          </mxGeometry>
        </mxCell>
        <mxCell id="4a2UcWddZCdq6afZ1OfK-24" style="edgeStyle=orthogonalEdgeStyle;rounded=0;orthogonalLoop=1;jettySize=auto;html=1;exitX=0.5;exitY=1;exitDx=0;exitDy=0;entryX=0.5;entryY=0;entryDx=0;entryDy=0;" edge="1" parent="WIyWlLk6GJQsqaUBKTNV-1" source="WIyWlLk6GJQsqaUBKTNV-11" target="4a2UcWddZCdq6afZ1OfK-23">
          <mxGeometry relative="1" as="geometry" />
        </mxCell>
        <mxCell id="WIyWlLk6GJQsqaUBKTNV-11" value="删除商家订单" style="rounded=1;whiteSpace=wrap;html=1;fontSize=12;glass=0;strokeWidth=1;shadow=0;" parent="WIyWlLk6GJQsqaUBKTNV-1" vertex="1">
          <mxGeometry x="120" y="-584" width="120" height="40" as="geometry" />
        </mxCell>
        <mxCell id="bhtRpw5px7U3JFPzSxyA-3" value="商家订单：&amp;nbsp; 产品订单、产品库存&lt;br&gt;产品订单：预排产订单&lt;br&gt;预排产订单：日排产订单、&lt;span style=&quot;color: rgb(50 , 50 , 50) ; font-size: 13px ; background-color: rgba(255 , 255 , 255 , 0.01)&quot;&gt;预排产库存锁定、物料采购订单、&lt;/span&gt;&lt;span style=&quot;color: rgb(50 , 50 , 50) ; font-size: 13px ; background-color: rgba(255 , 255 , 255 , 0.01)&quot;&gt;材料-库存信息&lt;/span&gt;" style="strokeWidth=2;html=1;shape=mxgraph.flowchart.document2;whiteSpace=wrap;size=0.25;fillColor=#d5e8d4;strokeColor=#82b366;" parent="WIyWlLk6GJQsqaUBKTNV-1" vertex="1">
          <mxGeometry x="90" y="-1120" width="450" height="100" as="geometry" />
        </mxCell>
        <mxCell id="e_4AayXEStNU0mehBLRU-0" value="" style="rounded=0;html=1;jettySize=auto;orthogonalLoop=1;fontSize=11;endArrow=block;endFill=0;endSize=8;strokeWidth=1;shadow=0;labelBackgroundColor=none;edgeStyle=orthogonalEdgeStyle;" parent="WIyWlLk6GJQsqaUBKTNV-1" source="e_4AayXEStNU0mehBLRU-1" target="e_4AayXEStNU0mehBLRU-4" edge="1">
          <mxGeometry relative="1" as="geometry" />
        </mxCell>
        <mxCell id="e_4AayXEStNU0mehBLRU-1" value="x修改商家订单" style="rounded=1;whiteSpace=wrap;html=1;fontSize=12;glass=0;strokeWidth=1;shadow=0;" parent="WIyWlLk6GJQsqaUBKTNV-1" vertex="1">
          <mxGeometry x="270" y="-500" width="120" height="40" as="geometry" />
        </mxCell>
        <mxCell id="e_4AayXEStNU0mehBLRU-10" value="" style="edgeStyle=orthogonalEdgeStyle;rounded=0;orthogonalLoop=1;jettySize=auto;html=1;" parent="WIyWlLk6GJQsqaUBKTNV-1" source="e_4AayXEStNU0mehBLRU-4" target="e_4AayXEStNU0mehBLRU-9" edge="1">
          <mxGeometry relative="1" as="geometry" />
        </mxCell>
        <mxCell id="e_4AayXEStNU0mehBLRU-11" value="" style="edgeStyle=orthogonalEdgeStyle;rounded=0;orthogonalLoop=1;jettySize=auto;html=1;" parent="WIyWlLk6GJQsqaUBKTNV-1" source="e_4AayXEStNU0mehBLRU-4" target="e_4AayXEStNU0mehBLRU-6" edge="1">
          <mxGeometry relative="1" as="geometry" />
        </mxCell>
        <mxCell id="e_4AayXEStNU0mehBLRU-4" value="两部分处理" style="rhombus;whiteSpace=wrap;html=1;shadow=0;fontFamily=Helvetica;fontSize=12;align=center;strokeWidth=1;spacing=6;spacingTop=-4;" parent="WIyWlLk6GJQsqaUBKTNV-1" vertex="1">
          <mxGeometry x="280" y="-410" width="100" height="80" as="geometry" />
        </mxCell>
        <mxCell id="e_4AayXEStNU0mehBLRU-18" style="edgeStyle=orthogonalEdgeStyle;rounded=0;orthogonalLoop=1;jettySize=auto;html=1;entryX=0.5;entryY=0;entryDx=0;entryDy=0;" parent="WIyWlLk6GJQsqaUBKTNV-1" source="e_4AayXEStNU0mehBLRU-6" target="e_4AayXEStNU0mehBLRU-15" edge="1">
          <mxGeometry relative="1" as="geometry" />
        </mxCell>
        <mxCell id="e_4AayXEStNU0mehBLRU-6" value="修改产品订单" style="rounded=1;whiteSpace=wrap;html=1;fontSize=12;glass=0;strokeWidth=1;shadow=0;" parent="WIyWlLk6GJQsqaUBKTNV-1" vertex="1">
          <mxGeometry x="430" y="-390" width="120" height="40" as="geometry" />
        </mxCell>
        <mxCell id="e_4AayXEStNU0mehBLRU-7" value="完成删除" style="rounded=1;whiteSpace=wrap;html=1;fontSize=12;glass=0;strokeWidth=1;shadow=0;" parent="WIyWlLk6GJQsqaUBKTNV-1" vertex="1">
          <mxGeometry x="270" y="-140" width="120" height="40" as="geometry" />
        </mxCell>
        <mxCell id="e_4AayXEStNU0mehBLRU-28" style="edgeStyle=orthogonalEdgeStyle;rounded=0;orthogonalLoop=1;jettySize=auto;html=1;entryX=0;entryY=0.5;entryDx=0;entryDy=0;" parent="WIyWlLk6GJQsqaUBKTNV-1" source="e_4AayXEStNU0mehBLRU-9" target="e_4AayXEStNU0mehBLRU-7" edge="1">
          <mxGeometry relative="1" as="geometry">
            <mxPoint x="330" y="-180" as="targetPoint" />
            <Array as="points">
              <mxPoint x="150" y="-120" />
            </Array>
          </mxGeometry>
        </mxCell>
        <mxCell id="e_4AayXEStNU0mehBLRU-9" value="修改商家订单" style="rounded=1;whiteSpace=wrap;html=1;shadow=0;strokeWidth=1;spacing=6;spacingTop=-4;" parent="WIyWlLk6GJQsqaUBKTNV-1" vertex="1">
          <mxGeometry x="90" y="-395" width="120" height="50" as="geometry" />
        </mxCell>
        <mxCell id="e_4AayXEStNU0mehBLRU-23" value="" style="edgeStyle=orthogonalEdgeStyle;rounded=0;orthogonalLoop=1;jettySize=auto;html=1;" parent="WIyWlLk6GJQsqaUBKTNV-1" source="e_4AayXEStNU0mehBLRU-15" target="e_4AayXEStNU0mehBLRU-22" edge="1">
          <mxGeometry relative="1" as="geometry" />
        </mxCell>
        <mxCell id="e_4AayXEStNU0mehBLRU-25" value="" style="edgeStyle=orthogonalEdgeStyle;rounded=0;orthogonalLoop=1;jettySize=auto;html=1;" parent="WIyWlLk6GJQsqaUBKTNV-1" source="e_4AayXEStNU0mehBLRU-15" target="e_4AayXEStNU0mehBLRU-24" edge="1">
          <mxGeometry relative="1" as="geometry" />
        </mxCell>
        <mxCell id="e_4AayXEStNU0mehBLRU-15" value="产品订单是否已投入生产？" style="rhombus;whiteSpace=wrap;html=1;shadow=0;fontFamily=Helvetica;fontSize=12;align=center;strokeWidth=1;spacing=6;spacingTop=-4;" parent="WIyWlLk6GJQsqaUBKTNV-1" vertex="1">
          <mxGeometry x="440" y="-310" width="100" height="80" as="geometry" />
        </mxCell>
        <mxCell id="e_4AayXEStNU0mehBLRU-26" style="edgeStyle=orthogonalEdgeStyle;rounded=0;orthogonalLoop=1;jettySize=auto;html=1;" parent="WIyWlLk6GJQsqaUBKTNV-1" source="e_4AayXEStNU0mehBLRU-22" target="e_4AayXEStNU0mehBLRU-7" edge="1">
          <mxGeometry relative="1" as="geometry" />
        </mxCell>
        <mxCell id="e_4AayXEStNU0mehBLRU-22" value="仅修改加急" style="rounded=1;whiteSpace=wrap;html=1;fontSize=12;glass=0;strokeWidth=1;shadow=0;" parent="WIyWlLk6GJQsqaUBKTNV-1" vertex="1">
          <mxGeometry x="270" y="-290" width="120" height="40" as="geometry" />
        </mxCell>
        <mxCell id="e_4AayXEStNU0mehBLRU-30" style="edgeStyle=orthogonalEdgeStyle;rounded=0;orthogonalLoop=1;jettySize=auto;html=1;exitX=0.5;exitY=1;exitDx=0;exitDy=0;entryX=1;entryY=0.5;entryDx=0;entryDy=0;" parent="WIyWlLk6GJQsqaUBKTNV-1" source="e_4AayXEStNU0mehBLRU-24" target="e_4AayXEStNU0mehBLRU-7" edge="1">
          <mxGeometry relative="1" as="geometry" />
        </mxCell>
        <mxCell id="e_4AayXEStNU0mehBLRU-24" value="修改整个产品订单" style="rounded=1;whiteSpace=wrap;html=1;fontSize=12;glass=0;strokeWidth=1;shadow=0;" parent="WIyWlLk6GJQsqaUBKTNV-1" vertex="1">
          <mxGeometry x="430" y="-200" width="120" height="40" as="geometry" />
        </mxCell>
        <mxCell id="5FaI2_AjHvMNQ4dwPlwW-2" value="" style="edgeStyle=orthogonalEdgeStyle;rounded=0;orthogonalLoop=1;jettySize=auto;html=1;entryX=0.5;entryY=0;entryDx=0;entryDy=0;" parent="WIyWlLk6GJQsqaUBKTNV-1" source="5FaI2_AjHvMNQ4dwPlwW-0" target="5FaI2_AjHvMNQ4dwPlwW-3" edge="1">
          <mxGeometry relative="1" as="geometry">
            <mxPoint x="235" y="100" as="targetPoint" />
          </mxGeometry>
        </mxCell>
        <mxCell id="5FaI2_AjHvMNQ4dwPlwW-0" value="修改产品订单" style="rounded=1;whiteSpace=wrap;html=1;fontSize=12;glass=0;strokeWidth=1;shadow=0;" parent="WIyWlLk6GJQsqaUBKTNV-1" vertex="1">
          <mxGeometry x="175" width="120" height="40" as="geometry" />
        </mxCell>
        <mxCell id="5FaI2_AjHvMNQ4dwPlwW-3" value="" style="rhombus;whiteSpace=wrap;html=1;shadow=0;fontFamily=Helvetica;fontSize=12;align=center;strokeWidth=1;spacing=6;spacingTop=-4;" parent="WIyWlLk6GJQsqaUBKTNV-1" vertex="1">
          <mxGeometry x="185" y="70" width="100" height="80" as="geometry" />
        </mxCell>
        <mxCell id="5FaI2_AjHvMNQ4dwPlwW-4" value="0待生产、1待预排产、2进行中、3已完成、4已取消&lt;br&gt;待生产状态可以直接修改；&lt;br&gt;如果已经投入生产了，那么需要先取消投入生产才能修改。&lt;br&gt;&lt;br&gt;进行中不可修改，如要修改要先对关联的预排产订单进行处理&lt;br&gt;已完成和已取消的产品订单不予修改" style="strokeWidth=2;html=1;shape=mxgraph.flowchart.annotation_2;align=left;labelPosition=right;pointerEvents=1;" parent="WIyWlLk6GJQsqaUBKTNV-1" vertex="1">
          <mxGeometry x="321" y="-30" width="50" height="100" as="geometry" />
        </mxCell>
        <mxCell id="pQeIfIIc8u159uHe44wj-2" value="" style="edgeStyle=orthogonalEdgeStyle;rounded=0;orthogonalLoop=1;jettySize=auto;html=1;" parent="WIyWlLk6GJQsqaUBKTNV-1" source="pQeIfIIc8u159uHe44wj-0" target="pQeIfIIc8u159uHe44wj-1" edge="1">
          <mxGeometry relative="1" as="geometry" />
        </mxCell>
        <mxCell id="pQeIfIIc8u159uHe44wj-0" value="删除产品订单" style="rounded=1;whiteSpace=wrap;html=1;fontSize=12;glass=0;strokeWidth=1;shadow=0;" parent="WIyWlLk6GJQsqaUBKTNV-1" vertex="1">
          <mxGeometry x="175" y="300" width="120" height="40" as="geometry" />
        </mxCell>
        <mxCell id="pQeIfIIc8u159uHe44wj-1" value="" style="rhombus;whiteSpace=wrap;html=1;rounded=1;glass=0;strokeWidth=1;shadow=0;" parent="WIyWlLk6GJQsqaUBKTNV-1" vertex="1">
          <mxGeometry x="195" y="380" width="80" height="80" as="geometry" />
        </mxCell>
        <mxCell id="pQeIfIIc8u159uHe44wj-3" value="状态: 0待生产、1待预排产、2进行中、3已完成、4已取消&lt;br&gt;能否删除？&lt;br&gt;数据变动？&lt;br&gt;有关联的预排产订单，不删除&lt;br&gt;查看是否绑定库存产品，进行解绑，若是已完成状态或绑定为0，则不需解绑" style="strokeWidth=2;html=1;shape=mxgraph.flowchart.annotation_2;align=left;labelPosition=right;pointerEvents=1;" parent="WIyWlLk6GJQsqaUBKTNV-1" vertex="1">
          <mxGeometry x="321" y="270" width="50" height="100" as="geometry" />
        </mxCell>
        <mxCell id="4a2UcWddZCdq6afZ1OfK-0" value="状态: 0待交付、1已交付、2逾期、3已取消" style="strokeWidth=2;html=1;shape=mxgraph.flowchart.annotation_2;align=left;labelPosition=right;pointerEvents=1;" vertex="1" parent="WIyWlLk6GJQsqaUBKTNV-1">
          <mxGeometry x="420" y="-505" width="25" height="50" as="geometry" />
        </mxCell>
        <mxCell id="4a2UcWddZCdq6afZ1OfK-1" value="状态: 0待交付、1已交付、2逾期、3已取消&lt;br&gt;1 删除时会执行产品订单的删除，只有产品订单成功删除才能继续执行&lt;br&gt;2 也可以通过先解除产品订单和商家订单的关联来完成商家订单的删除" style="strokeWidth=2;html=1;shape=mxgraph.flowchart.annotation_2;align=left;labelPosition=right;pointerEvents=1;" vertex="1" parent="WIyWlLk6GJQsqaUBKTNV-1">
          <mxGeometry x="60" y="-951" width="30" height="80" as="geometry" />
        </mxCell>
        <mxCell id="4a2UcWddZCdq6afZ1OfK-6" value="" style="edgeStyle=orthogonalEdgeStyle;rounded=0;orthogonalLoop=1;jettySize=auto;html=1;" edge="1" parent="WIyWlLk6GJQsqaUBKTNV-1" source="4a2UcWddZCdq6afZ1OfK-3">
          <mxGeometry relative="1" as="geometry">
            <mxPoint x="300" y="-760" as="targetPoint" />
          </mxGeometry>
        </mxCell>
        <mxCell id="4a2UcWddZCdq6afZ1OfK-3" value="删除产品订单" style="rhombus;whiteSpace=wrap;html=1;shadow=0;fontFamily=Helvetica;fontSize=12;align=center;strokeWidth=1;spacing=6;spacingTop=-4;" vertex="1" parent="WIyWlLk6GJQsqaUBKTNV-1">
          <mxGeometry x="130" y="-800" width="100" height="80" as="geometry" />
        </mxCell>
        <mxCell id="4a2UcWddZCdq6afZ1OfK-8" value="失败" style="text;html=1;align=center;verticalAlign=middle;resizable=0;points=[];autosize=1;strokeColor=none;fillColor=none;" vertex="1" parent="WIyWlLk6GJQsqaUBKTNV-1">
          <mxGeometry x="240" y="-780" width="40" height="20" as="geometry" />
        </mxCell>
        <mxCell id="4a2UcWddZCdq6afZ1OfK-11" style="edgeStyle=orthogonalEdgeStyle;rounded=0;orthogonalLoop=1;jettySize=auto;html=1;exitX=0.5;exitY=0;exitDx=0;exitDy=0;entryX=1;entryY=0.5;entryDx=0;entryDy=0;" edge="1" parent="WIyWlLk6GJQsqaUBKTNV-1" source="4a2UcWddZCdq6afZ1OfK-10" target="WIyWlLk6GJQsqaUBKTNV-3">
          <mxGeometry relative="1" as="geometry" />
        </mxCell>
        <mxCell id="4a2UcWddZCdq6afZ1OfK-10" value="处理产品订单" style="rounded=1;whiteSpace=wrap;html=1;fontSize=12;glass=0;strokeWidth=1;shadow=0;" vertex="1" parent="WIyWlLk6GJQsqaUBKTNV-1">
          <mxGeometry x="300" y="-780" width="120" height="40" as="geometry" />
        </mxCell>
        <mxCell id="4a2UcWddZCdq6afZ1OfK-15" value="" style="edgeStyle=orthogonalEdgeStyle;rounded=0;orthogonalLoop=1;jettySize=auto;html=1;" edge="1" parent="WIyWlLk6GJQsqaUBKTNV-1" source="4a2UcWddZCdq6afZ1OfK-13" target="4a2UcWddZCdq6afZ1OfK-14">
          <mxGeometry relative="1" as="geometry" />
        </mxCell>
        <mxCell id="4a2UcWddZCdq6afZ1OfK-19" style="edgeStyle=orthogonalEdgeStyle;rounded=0;orthogonalLoop=1;jettySize=auto;html=1;exitX=0.5;exitY=1;exitDx=0;exitDy=0;entryX=0.5;entryY=0;entryDx=0;entryDy=0;" edge="1" parent="WIyWlLk6GJQsqaUBKTNV-1" source="4a2UcWddZCdq6afZ1OfK-13" target="WIyWlLk6GJQsqaUBKTNV-11">
          <mxGeometry relative="1" as="geometry" />
        </mxCell>
        <mxCell id="4a2UcWddZCdq6afZ1OfK-13" value="是否为主订单？" style="rhombus;whiteSpace=wrap;html=1;shadow=0;fontFamily=Helvetica;fontSize=12;align=center;strokeWidth=1;spacing=6;spacingTop=-4;" vertex="1" parent="WIyWlLk6GJQsqaUBKTNV-1">
          <mxGeometry x="130" y="-690" width="100" height="80" as="geometry" />
        </mxCell>
        <mxCell id="4a2UcWddZCdq6afZ1OfK-17" value="" style="edgeStyle=orthogonalEdgeStyle;rounded=0;orthogonalLoop=1;jettySize=auto;html=1;" edge="1" parent="WIyWlLk6GJQsqaUBKTNV-1" source="4a2UcWddZCdq6afZ1OfK-14" target="4a2UcWddZCdq6afZ1OfK-16">
          <mxGeometry relative="1" as="geometry" />
        </mxCell>
        <mxCell id="4a2UcWddZCdq6afZ1OfK-14" value="是否有子订单？" style="rhombus;whiteSpace=wrap;html=1;shadow=0;fontFamily=Helvetica;fontSize=12;align=center;strokeWidth=1;spacing=6;spacingTop=-4;" vertex="1" parent="WIyWlLk6GJQsqaUBKTNV-1">
          <mxGeometry x="310" y="-690" width="100" height="80" as="geometry" />
        </mxCell>
        <mxCell id="4a2UcWddZCdq6afZ1OfK-18" style="edgeStyle=orthogonalEdgeStyle;rounded=0;orthogonalLoop=1;jettySize=auto;html=1;exitX=0.5;exitY=1;exitDx=0;exitDy=0;entryX=1;entryY=0.5;entryDx=0;entryDy=0;" edge="1" parent="WIyWlLk6GJQsqaUBKTNV-1" source="4a2UcWddZCdq6afZ1OfK-16" target="WIyWlLk6GJQsqaUBKTNV-11">
          <mxGeometry relative="1" as="geometry" />
        </mxCell>
        <mxCell id="4a2UcWddZCdq6afZ1OfK-16" value="更换主订单" style="rounded=1;whiteSpace=wrap;html=1;shadow=0;strokeWidth=1;spacing=6;spacingTop=-4;" vertex="1" parent="WIyWlLk6GJQsqaUBKTNV-1">
          <mxGeometry x="480" y="-670" width="120" height="40" as="geometry" />
        </mxCell>
        <mxCell id="4a2UcWddZCdq6afZ1OfK-20" value="是" style="text;html=1;align=center;verticalAlign=middle;resizable=0;points=[];autosize=1;strokeColor=none;fillColor=none;" vertex="1" parent="WIyWlLk6GJQsqaUBKTNV-1">
          <mxGeometry x="245" y="-670" width="30" height="20" as="geometry" />
        </mxCell>
        <mxCell id="4a2UcWddZCdq6afZ1OfK-21" value="否" style="text;html=1;align=center;verticalAlign=middle;resizable=0;points=[];autosize=1;strokeColor=none;fillColor=none;" vertex="1" parent="WIyWlLk6GJQsqaUBKTNV-1">
          <mxGeometry x="175" y="-610" width="30" height="20" as="geometry" />
        </mxCell>
        <mxCell id="4a2UcWddZCdq6afZ1OfK-22" value="随机更换" style="strokeWidth=2;html=1;shape=mxgraph.flowchart.annotation_2;align=left;labelPosition=right;pointerEvents=1;" vertex="1" parent="WIyWlLk6GJQsqaUBKTNV-1">
          <mxGeometry x="620" y="-675" width="20" height="50" as="geometry" />
        </mxCell>
        <mxCell id="4a2UcWddZCdq6afZ1OfK-23" value="完成删除" style="rounded=1;whiteSpace=wrap;html=1;fontSize=12;glass=0;strokeWidth=1;shadow=0;" vertex="1" parent="WIyWlLk6GJQsqaUBKTNV-1">
          <mxGeometry x="120" y="-520" width="120" height="40" as="geometry" />
        </mxCell>
      </root>
    </mxGraphModel>
  </diagram>
</mxfile>
